<?xml version="1.0" encoding="utf-8"?>
<!-- Generator: Adobe Illustrator 16.0.0, SVG Export Plug-In . SVG Version: 6.00 Build 0)  -->
<!DOCTYPE svg PUBLIC "-//W3C//DTD SVG 1.1//EN" "http://www.w3.org/Graphics/SVG/1.1/DTD/svg11.dtd">
<svg version="1.1" id="Layer_1" xmlns="http://www.w3.org/2000/svg" xmlns:xlink="http://www.w3.org/1999/xlink" x="0px" y="0px"
	 width="1024px" height="768px" viewBox="0 0 1024 768" enable-background="new 0 0 1024 768" xml:space="preserve">
<g>
	<path d="M444.381,420.985v-2.621h1.164c0.232,0,0.411,0.022,0.532,0.069c0.123,0.047,0.219,0.133,0.293,0.251
		c0.071,0.118,0.107,0.25,0.107,0.396c0,0.187-0.061,0.343-0.179,0.47c-0.121,0.127-0.309,0.208-0.56,0.244
		c0.092,0.045,0.162,0.087,0.211,0.13c0.1,0.094,0.196,0.21,0.286,0.349l0.457,0.713h-0.437l-0.347-0.546
		c-0.1-0.155-0.185-0.276-0.25-0.359c-0.064-0.082-0.125-0.144-0.177-0.177c-0.052-0.031-0.105-0.057-0.159-0.069
		c-0.039-0.007-0.103-0.012-0.192-0.012h-0.403v1.163H444.381z M444.728,419.521h0.748c0.156,0,0.282-0.016,0.371-0.05
		c0.089-0.031,0.156-0.085,0.203-0.156s0.07-0.149,0.07-0.235c0-0.125-0.045-0.226-0.134-0.307c-0.089-0.08-0.233-0.121-0.427-0.121
		h-0.83V419.521z M445.538,416.944c-1.503,0-2.72,1.232-2.72,2.735c0,1.501,1.216,2.72,2.72,2.72c1.5,0,2.72-1.219,2.72-2.72
		C448.257,418.177,447.038,416.944,445.538,416.944L445.538,416.944z M445.538,417.518c1.19,0,2.147,0.97,2.147,2.162
		c0,1.189-0.957,2.146-2.147,2.146c-1.192,0-2.147-0.957-2.147-2.146C443.39,418.487,444.345,417.518,445.538,417.518
		L445.538,417.518z M404.471,434.658c0-0.217,3.601-5.568,7.761-11.531c1.485-2.13,2.006-3.35,2.154-5.039
		c0.107-1.227,0.635-3.723,1.174-5.548c0.539-1.824,0.873-3.424,0.743-3.554c-0.129-0.132-1.121,0.073-2.199,0.454
		c-2.36,0.832-3.921,0.868-6.598,0.152c-1.705-0.457-2.339-0.417-4.077,0.246c-1.933,0.738-2.176,0.74-3.979,0.018
		c-1.804-0.723-2.199-0.721-6.505,0.038c-8.049,1.413-10.65,0.621-16.021-4.883c-3.328-3.406-4.569-4.153-5.205-3.124
		c-0.156,0.252-0.765,0.458-1.353,0.458c-0.785,0-1.468-0.615-2.546-2.297c-0.81-1.262-2.051-2.706-2.758-3.209
		c-3.862-2.752-8.23-0.757-8.23,3.76c0,1.857,3.722,7.47,5.6,8.44c2.48,1.283,1.083,3.205-2.033,2.786
		c-1.612-0.217-2.326-0.699-4.491-3.036c-2.315-2.503-2.751-2.778-4.375-2.77c-0.991,0.005-2.648,0.394-3.682,0.863
		c-2.659,1.208-6.133,1.875-9.763,1.875h-3.125l-0.713-2.636c-1.626-5.987-1.91-8.327-1.908-15.688
		c0-5.632,0.217-8.551,0.846-11.452c3.406-15.679,12.076-28.355,25.229-36.891c6.452-4.187,12.377-6.645,19.942-8.271
		c5.406-1.163,17.506-1.194,22.762-0.062c17.899,3.858,32.722,15.147,40.44,30.796c4.321,8.763,5.965,15.894,5.965,25.88
		c0,9.761-1.624,16.979-5.719,25.422c-2.973,6.13-2.561,5.815-6.891,5.27c-3.919-0.492-9.054-0.076-12.351,1.004
		c-1.472,0.483-1.873,0.858-2.06,1.946c-0.2,1.152-0.629,1.498-2.975,2.406c-1.975,0.766-3.574,1.879-5.726,3.983
		c-1.642,1.608-3.398,3.124-3.901,3.371C406.723,434.413,404.471,434.951,404.471,434.658L404.471,434.658z M415.463,404.884
		c10.206-1.554,17.27-5.721,20.222-11.93c2.527-5.316,1.427-10.204-3.064-13.612c-2.156-1.635-7.665-4.023-9.282-4.023
		c-0.445,0-1.219,0.832-1.812,1.948c-0.901,1.693-3.429,4.008-4.379,4.008c-0.175,0,0.302-1.163,1.06-2.583
		c0.812-1.525,1.378-3.274,1.378-4.265c0-4.435-4.78-17.405-8.625-23.395c-1.778-2.773-2.664-3.677-4.657-4.757
		c-3.446-1.87-7.564-2.103-12.936-0.731c-3.226,0.82-4.722,0.963-7.784,0.743c-12.469-0.902-11.97-0.908-14.031,0.146
		c-2.628,1.339-3.456,2.908-5.082,9.638c-1.762,7.284-1.802,9.534-0.206,11.433c1.628,1.937,6.869,4.335,12.094,5.536
		c6.253,1.438,10.516,2.707,11.702,3.485c0.568,0.372,1.277,1.335,1.579,2.141c1.311,3.509,2.017,4.925,2.816,5.647
		c0.467,0.425,0.852,1.024,0.852,1.333c0,3.321-23.652-4.044-29.75-9.264c-2.642-2.259-3.399-3.914-3.071-6.689l0.266-2.262
		l-6.053,0.199c-5.115,0.167-6.392,0.36-8.232,1.248c-6.323,3.051-6.023,8.146,0.865,14.691
		c10.069,9.562,30.705,18.888,47.09,21.281C402.059,405.669,410.199,405.686,415.463,404.884L415.463,404.884L415.463,404.884z
		 M372.672,360.632c-1.653-1.688-2.253-2.65-2.253-3.63c0-2.288,1.64-3.475,2.984-2.163c2.022,1.975,2.731,2.159,7.26,1.861
		c4.729-0.311,7.471,0.219,7.979,1.541c0.46,1.199-0.35,1.571-4.396,2.018c-4.359,0.479-6.486,1.074-7.28,2.029
		C376.034,363.413,375.014,363.019,372.672,360.632L372.672,360.632z M398.4,353.419c-2.094-0.175-2.215-0.729-0.275-1.284
		c1.774-0.509,2.76-1.842,1.803-2.44c-1.018-0.635-4.523-1.038-6.073-0.698c-0.928,0.203-1.309,0.148-1.116-0.166
		c0.486-0.783,5.339-1.579,8.097-1.331c2.874,0.262,5.202,1.274,5.658,2.464C407.264,351.97,402.977,353.797,398.4,353.419
		L398.4,353.419z M396.787,420.666c-0.825-0.503-2.017-0.915-2.648-0.915c-1.341,0-1.928-1.089-1.116-2.066
		c0.711-0.856,3.073-0.854,4.576,0.005c1.606,0.919,2.926,0.84,3.894-0.229c1.116-1.232,1.601-1.151,1.601,0.264
		c0,1.488-2.304,3.86-3.741,3.858C398.767,421.581,397.611,421.17,396.787,420.666L396.787,420.666L396.787,420.666z
		 M396.787,420.666"/>
	<path d="M687.454,421.755v-2.623h1.163c0.232,0,0.412,0.024,0.532,0.071c0.121,0.047,0.22,0.13,0.291,0.249
		c0.074,0.12,0.109,0.252,0.109,0.395c0,0.187-0.06,0.346-0.181,0.473c-0.121,0.128-0.307,0.208-0.557,0.241
		c0.092,0.045,0.16,0.09,0.208,0.133c0.103,0.092,0.198,0.208,0.288,0.349l0.456,0.713h-0.436l-0.347-0.546
		c-0.104-0.155-0.186-0.276-0.251-0.362c-0.067-0.082-0.125-0.141-0.177-0.174c-0.051-0.033-0.104-0.056-0.158-0.069
		c-0.038-0.009-0.104-0.014-0.192-0.014h-0.403v1.165H687.454L687.454,421.755z M687.801,420.291h0.745
		c0.159,0,0.284-0.019,0.374-0.05c0.089-0.034,0.156-0.085,0.203-0.159c0.047-0.071,0.069-0.149,0.069-0.235
		c0-0.122-0.045-0.225-0.134-0.306c-0.092-0.078-0.233-0.118-0.428-0.118h-0.83V420.291L687.801,420.291z M688.608,417.714
		c-1.501,0-2.72,1.232-2.72,2.733c0,1.5,1.219,2.72,2.72,2.72c1.503,0,2.72-1.22,2.72-2.72
		C691.328,418.946,690.111,417.714,688.608,417.714L688.608,417.714z M688.608,418.286c1.192,0,2.147,0.969,2.147,2.161
		c0,1.191-0.955,2.147-2.147,2.147c-1.189,0-2.147-0.956-2.147-2.147C686.461,419.255,687.419,418.286,688.608,418.286
		L688.608,418.286z M562.308,422.503c3.382-0.716,5.597-1.94,7.934-4.38l2.006-2.092l-0.073,6.191l9.289,0.088L581.226,367
		l-9.962-2.604l-0.345,21.589l-1.85-1.584c-1.099-0.939-2.926-1.886-4.496-2.327c-9.038-2.534-17.741,2.332-21.201,11.855
		c-1.375,3.784-1.496,12.526-0.224,16.263c2.188,6.426,6.82,10.979,12.539,12.327C558.123,423.096,559.537,423.09,562.308,422.503
		L562.308,422.503L562.308,422.503z M559.239,414.213c-2.335-0.827-3.659-2.024-5.044-4.56c-1.127-2.067-1.359-3.076-1.517-6.63
		c-0.219-4.896,0.52-7.716,2.711-10.378c4.189-5.082,11.653-4.29,14.635,1.552c1.271,2.494,1.293,12.552,0.033,15.326
		C568.192,413.63,563.424,415.696,559.239,414.213L559.239,414.213L559.239,414.213z M642.469,422.503
		c3.234-0.685,5.524-1.896,7.694-4.064l1.794-1.794l0.309,2.729l0.309,2.729h1.659h1.66l-0.119-13.628
		c-0.12-13.828-0.463-17.348-1.959-20.271c-1.071-2.09-3.469-4.364-5.482-5.199c-4.006-1.664-10.228-1.308-15.003,0.854
		c-2.548,1.153-2.657,1.33-1.964,3.153l0.44,1.158l2.626-1.203c3.465-1.586,8.466-1.962,11.364-0.854
		c3.711,1.418,5.732,4.777,5.739,9.535l0.002,2.176h-2.937c-6.584,0-14.03,2.38-17.123,5.474c-2.496,2.495-3.467,4.859-3.487,8.499
		c-0.036,5.862,3.042,9.546,9.119,10.91C638.749,423.073,640,423.026,642.469,422.503L642.469,422.503L642.469,422.503z
		 M635.979,418.536c-2.508-1.389-3.382-2.916-3.597-6.293c-0.229-3.605,0.349-5.171,2.69-7.287c2.259-2.04,6.533-3.362,12.139-3.758
		l4.327-0.304v5.242c0,5.097-0.04,5.308-1.487,7.723c-2.12,3.535-4.819,5.114-9.168,5.363
		C638.222,419.378,637.255,419.241,635.979,418.536L635.979,418.536z M679.04,422.557c1.338-0.254,2.501-0.53,2.586-0.616
		c0.083-0.082,0.022-0.791-0.135-1.576l-0.284-1.425l-2.836,0.264c-3.464,0.325-5.298-0.47-6.388-2.762
		c-0.644-1.357-0.747-3.606-0.747-16.053v-14.476h5.496h5.497v-1.602v-1.604h-5.497h-5.496v-4.122c0-2.268-0.132-4.125-0.291-4.125
		c-0.16,0-1.087,0.239-2.062,0.532l-1.771,0.53v3.572v3.572l-3.319,0.134l-3.321,0.134l-0.144,1.49l-0.145,1.487h3.441h3.442
		l0.137,15.231c0.132,14.557,0.181,15.312,1.12,17.063c1.295,2.416,2.42,3.379,4.82,4.129
		C675.62,423.108,676.039,423.124,679.04,422.557L679.04,422.557z M532.938,421.259l3.018-0.979l-0.691-3.326
		c-0.383-1.83-0.747-3.397-0.812-3.486c-0.065-0.088-1.432,0.17-3.04,0.572c-1.709,0.43-4.829,0.733-7.506,0.733
		c-4.094,0-4.852-0.134-7.068-1.259c-2.89-1.466-4.956-4.108-5.316-6.795l-0.241-1.794h13.214h13.214l-0.04-5.27
		c-0.031-4.315-0.222-5.712-1.049-7.738c-3.042-7.441-8.646-10.949-16.732-10.473c-7.994,0.472-13.778,4.684-16.737,12.192
		c-2.778,7.052-1.706,16.808,2.422,22.026c2.047,2.583,5.451,4.914,8.761,5.993C518.219,422.925,528.483,422.703,532.938,421.259
		L532.938,421.259L532.938,421.259z M511.375,397.022c0.009-1.472,2.139-5.405,3.583-6.622c4.259-3.581,9.969-2.473,12.465,2.424
		c0.494,0.966,0.897,2.487,0.897,3.377v1.622h-8.475C512.077,397.823,511.37,397.756,511.375,397.022L511.375,397.022z
		 M487.094,409.506c0.249-13.447,0.304-13.749,3.051-16.348c1.731-1.638,3.371-2.206,6.37-2.206h2.49v-4.873v-4.872l-2.749,0.248
		c-4.294,0.39-8.235,3.168-9.899,6.979l-0.599,1.372l-0.018-1.652c-0.012-0.91-0.15-2.61-0.311-3.779l-0.291-2.125h-4.232h-4.234
		l-0.022,40.239l10.215-0.004L487.094,409.506L487.094,409.506L487.094,409.506z M594.28,407.901
		c0.255-15.545,0.215-15.33,3.59-18.704c2.304-2.304,4.793-3.426,8.093-3.642c3.878-0.253,7.139,1.462,8.979,4.724
		c1.825,3.236,2.222,6.83,2.232,20.255l0.009,11.568h3.666v-13.924c0-12.572,0.026-14.247-0.906-16.853
		c-5.159-14.405-20.132-9.701-25.663-2.389l-0.253-18.625l-3.869-0.951v52.792l3.959,0.007L594.28,407.901L594.28,407.901
		L594.28,407.901z M594.28,407.901"/>
	<path fill="#CA0000" d="M399.753,344.663c-1.919-0.016-4.035,0.275-6.385,0.874c-3.226,0.823-4.726,0.966-7.786,0.745
		c-12.471-0.903-11.968-0.908-14.028,0.144c-2.628,1.339-3.453,2.916-5.082,9.646c-1.762,7.287-1.798,9.526-0.202,11.423
		c1.631,1.937,6.871,4.339,12.096,5.54c6.251,1.438,10.508,2.702,11.696,3.479c0.565,0.374,1.272,1.342,1.575,2.147
		c1.311,3.509,2.021,4.932,2.82,5.654c0.467,0.425,0.859,1.021,0.859,1.333c0,3.319-23.664-4.044-29.761-9.262
		c-2.641-2.261-3.392-3.923-3.063-6.699l0.259-2.263l-6.057,0.201c-5.113,0.168-6.39,0.358-8.231,1.246
		c-6.323,3.048-6.014,8.157,0.875,14.701c10.067,9.564,30.707,18.877,47.095,21.271c5.632,0.823,13.773,0.846,19.038,0.042
		c10.203-1.552,17.26-5.716,20.212-11.923c2.527-5.316,1.429-10.206-3.064-13.612c-2.156-1.638-7.658-4.024-9.275-4.024
		c-0.445,0-1.224,0.83-1.819,1.949c-0.901,1.693-3.431,4.008-4.379,4.008c-0.177,0,0.299-1.169,1.058-2.593
		c0.813-1.523,1.389-3.274,1.389-4.265c0-4.435-4.789-17.399-8.631-23.39c-1.781-2.771-2.659-3.687-4.652-4.767
		C404.37,345.215,402.221,344.686,399.753,344.663L399.753,344.663z M399.708,347.455c0.398,0.002,0.788,0.013,1.132,0.044
		c2.874,0.259,5.198,1.272,5.654,2.46c0.77,2.004-3.511,3.844-8.087,3.464c-2.096-0.171-2.223-0.731-0.286-1.288
		c1.774-0.507,2.76-1.836,1.803-2.434c-1.018-0.635-4.518-1.042-6.068-0.7c-0.928,0.204-1.311,0.141-1.116-0.172
		C393.162,348.146,396.926,347.452,399.708,347.455L399.708,347.455z M372.111,354.298c0.418-0.036,0.868,0.132,1.289,0.543
		c2.024,1.975,2.729,2.156,7.257,1.861c4.729-0.311,7.482,0.21,7.988,1.532c0.46,1.198-0.347,1.573-4.396,2.017
		c-4.359,0.481-6.491,1.076-7.285,2.033c-0.933,1.125-1.953,0.74-4.294-1.646c-1.655-1.688-2.248-2.657-2.248-3.637
		C370.422,355.43,371.191,354.375,372.111,354.298L372.111,354.298z M372.111,354.298"/>
</g>
</svg>
